<?xml version="1.0" encoding="UTF-8" standalone="no"?>
<!DOCTYPE svg PUBLIC "-//W3C//DTD SVG 1.1//EN"
 "http://www.w3.org/Graphics/SVG/1.1/DTD/svg11.dtd">
<!-- Generated by graphviz version 2.38.0 (20140413.2041)
 -->
<!-- Title: Pacserve Network Topology Example Pages: 1 -->
<svg width="326pt" height="326pt"
 viewBox="0.00 0.00 326.41 325.82" xmlns="http://www.w3.org/2000/svg" xmlns:xlink="http://www.w3.org/1999/xlink">
<g id="graph0" class="graph" transform="scale(1 1) rotate(0) translate(14.4 311.423)">
<title>Pacserve Network Topology Example</title>
<!-- a -->
<g id="node1" class="node"><title>a</title>
<path fill="#f4008c" stroke="black" d="M226.607,-227.523C226.607,-227.523 267.607,-227.523 267.607,-227.523 273.607,-227.523 279.607,-233.523 279.607,-239.523 279.607,-239.523 279.607,-284.523 279.607,-284.523 279.607,-290.523 273.607,-296.523 267.607,-296.523 267.607,-296.523 226.607,-296.523 226.607,-296.523 220.607,-296.523 214.607,-290.523 214.607,-284.523 214.607,-284.523 214.607,-239.523 214.607,-239.523 214.607,-233.523 220.607,-227.523 226.607,-227.523"/>
<text text-anchor="middle" x="247.107" y="-281.323" font-family="Times,serif" font-size="14.00">desktop</text>
<polyline fill="none" stroke="black" points="214.607,-273.523 279.607,-273.523 "/>
<text text-anchor="middle" x="247.107" y="-258.323" font-family="Times,serif" font-size="14.00">pacman</text>
<polyline fill="none" stroke="black" points="214.607,-250.523 279.607,-250.523 "/>
<text text-anchor="middle" x="247.107" y="-235.323" font-family="Times,serif" font-size="14.00">pacserve</text>
</g>
<!-- a&#45;&gt;a -->
<g id="edge1" class="edge"><title>a:pac:e&#45;&gt;a:srv1:e</title>
<path fill="none" stroke="black" d="M288.426,-267.764C293.151,-267.895 297.607,-263.015 297.607,-250.523 297.607,-238.031 293.151,-233.151 288.426,-233.281"/>
<polygon fill="black" stroke="black" points="280.107,-262.023 290.894,-264 284.222,-264.863 288.337,-267.703 288.337,-267.703 288.337,-267.703 284.222,-264.863 285.781,-271.407 280.107,-262.023 280.107,-262.023"/>
<polygon fill="black" stroke="black" points="280.107,-239.023 285.781,-229.639 284.222,-236.182 288.337,-233.342 288.337,-233.342 288.337,-233.342 284.222,-236.182 290.894,-237.045 280.107,-239.023 280.107,-239.023"/>
</g>
<!-- router -->
<g id="node4" class="node"><title>router</title>
<path fill="#aaaaaa" stroke="black" d="M166.572,-130.511C166.572,-130.511 196.572,-130.511 196.572,-130.511 202.572,-130.511 208.572,-136.511 208.572,-142.511 208.572,-142.511 208.572,-154.511 208.572,-154.511 208.572,-160.511 202.572,-166.511 196.572,-166.511 196.572,-166.511 166.572,-166.511 166.572,-166.511 160.572,-166.511 154.572,-160.511 154.572,-154.511 154.572,-154.511 154.572,-142.511 154.572,-142.511 154.572,-136.511 160.572,-130.511 166.572,-130.511"/>
<text text-anchor="middle" x="181.572" y="-144.811" font-family="Times,serif" font-size="14.00">router</text>
</g>
<!-- a&#45;&gt;router -->
<g id="edge4" class="edge"><title>a:srv1&#45;&gt;router</title>
<path fill="none" stroke="black" d="M207.604,-231.434C202.192,-224.568 194.699,-213.991 190.607,-203.523 187.326,-195.127 185.236,-185.56 183.905,-176.784"/>
<polygon fill="black" stroke="black" points="214.036,-239.093 204.159,-234.329 210.82,-235.264 207.605,-231.435 207.605,-231.435 207.605,-231.435 210.82,-235.264 211.05,-228.541 214.036,-239.093 214.036,-239.093"/>
<polygon fill="black" stroke="black" points="182.629,-166.604 188.338,-175.967 183.251,-171.565 183.873,-176.526 183.873,-176.526 183.873,-176.526 183.251,-171.565 179.408,-177.086 182.629,-166.604 182.629,-166.604"/>
</g>
<!-- b -->
<g id="node2" class="node"><title>b</title>
<path fill="#763fe1" stroke="black" d="M30,-114.011C30,-114.011 71,-114.011 71,-114.011 77,-114.011 83,-120.011 83,-126.011 83,-126.011 83,-171.011 83,-171.011 83,-177.011 77,-183.011 71,-183.011 71,-183.011 30,-183.011 30,-183.011 24,-183.011 18,-177.011 18,-171.011 18,-171.011 18,-126.011 18,-126.011 18,-120.011 24,-114.011 30,-114.011"/>
<text text-anchor="middle" x="50.5" y="-167.811" font-family="Times,serif" font-size="14.00">laptop A</text>
<polyline fill="none" stroke="black" points="18,-160.011 83,-160.011 "/>
<text text-anchor="middle" x="50.5" y="-144.811" font-family="Times,serif" font-size="14.00">pacman</text>
<polyline fill="none" stroke="black" points="18,-137.011 83,-137.011 "/>
<text text-anchor="middle" x="50.5" y="-121.811" font-family="Times,serif" font-size="14.00">pacserve</text>
</g>
<!-- b&#45;&gt;b -->
<g id="edge2" class="edge"><title>b:pac:w&#45;&gt;b:srv1:w</title>
<path fill="none" stroke="black" d="M9.18191,-154.253C4.45605,-154.383 0,-149.504 0,-137.011 0,-124.519 4.45605,-119.639 9.18191,-119.77"/>
<polygon fill="black" stroke="black" points="17.5,-148.511 11.8264,-157.895 13.3851,-151.352 9.27014,-154.192 9.27014,-154.192 9.27014,-154.192 13.3851,-151.352 6.71383,-150.489 17.5,-148.511 17.5,-148.511"/>
<polygon fill="black" stroke="black" points="17.5,-125.511 6.71383,-123.534 13.3851,-122.671 9.27014,-119.831 9.27014,-119.831 9.27014,-119.831 13.3851,-122.671 11.8264,-116.127 17.5,-125.511 17.5,-125.511"/>
</g>
<!-- b&#45;&gt;router -->
<g id="edge5" class="edge"><title>b:srv1&#45;&gt;router</title>
<path fill="none" stroke="black" d="M93.6389,-127.889C105.656,-130.708 126.363,-135.564 144.664,-139.856"/>
<polygon fill="black" stroke="black" points="83.5,-125.511 94.2634,-123.414 88.3679,-126.653 93.2358,-127.795 93.2358,-127.795 93.2358,-127.795 88.3679,-126.653 92.2083,-132.176 83.5,-125.511 83.5,-125.511"/>
<polygon fill="black" stroke="black" points="154.514,-142.166 143.75,-144.263 149.646,-141.024 144.778,-139.882 144.778,-139.882 144.778,-139.882 149.646,-141.024 145.805,-135.501 154.514,-142.166 154.514,-142.166"/>
</g>
<!-- c -->
<g id="node3" class="node"><title>c</title>
<path fill="#3fb9e1" stroke="black" d="M226.607,-0.5C226.607,-0.5 267.607,-0.5 267.607,-0.5 273.607,-0.5 279.607,-6.5 279.607,-12.5 279.607,-12.5 279.607,-57.5 279.607,-57.5 279.607,-63.5 273.607,-69.5 267.607,-69.5 267.607,-69.5 226.607,-69.5 226.607,-69.5 220.607,-69.5 214.607,-63.5 214.607,-57.5 214.607,-57.5 214.607,-12.5 214.607,-12.5 214.607,-6.5 220.607,-0.5 226.607,-0.5"/>
<text text-anchor="middle" x="247.107" y="-54.3" font-family="Times,serif" font-size="14.00">laptop B</text>
<polyline fill="none" stroke="black" points="214.607,-46.5 279.607,-46.5 "/>
<text text-anchor="middle" x="247.107" y="-31.3" font-family="Times,serif" font-size="14.00">pacman</text>
<polyline fill="none" stroke="black" points="214.607,-23.5 279.607,-23.5 "/>
<text text-anchor="middle" x="247.107" y="-8.3" font-family="Times,serif" font-size="14.00">pacserve</text>
</g>
<!-- c&#45;&gt;c -->
<g id="edge3" class="edge"><title>c:pac:e&#45;&gt;c:srv1:e</title>
<path fill="none" stroke="black" d="M288.426,-40.7415C293.151,-40.8719 297.607,-35.9922 297.607,-23.5 297.607,-11.0078 293.151,-6.12805 288.426,-6.25845"/>
<polygon fill="black" stroke="black" points="280.107,-35 290.894,-36.9772 284.222,-37.8403 288.337,-40.6807 288.337,-40.6807 288.337,-40.6807 284.222,-37.8403 285.781,-44.3841 280.107,-35 280.107,-35"/>
<polygon fill="black" stroke="black" points="280.107,-12 285.781,-2.61588 284.222,-9.15966 288.337,-6.31932 288.337,-6.31932 288.337,-6.31932 284.222,-9.15966 290.894,-10.0228 280.107,-12 280.107,-12"/>
</g>
<!-- c&#45;&gt;router -->
<g id="edge6" class="edge"><title>c:srv1&#45;&gt;router</title>
<path fill="none" stroke="black" d="M210.85,-21.7513C205.952,-36.911 196.521,-67.237 190.607,-93.5 188.673,-102.092 186.972,-111.527 185.583,-120.12"/>
<polygon fill="black" stroke="black" points="214.036,-12.0699 215.184,-22.9755 212.473,-16.8194 210.91,-21.5688 210.91,-21.5688 210.91,-21.5688 212.473,-16.8194 206.635,-20.162 214.036,-12.0699 214.036,-12.0699"/>
<polygon fill="black" stroke="black" points="184.049,-130.07 181.125,-119.501 184.81,-125.129 185.572,-120.187 185.572,-120.187 185.572,-120.187 184.81,-125.129 190.02,-120.873 184.049,-130.07 184.049,-130.07"/>
</g>
</g>
</svg>
