<?xml version="1.0" encoding="UTF-8" standalone="no"?>
<!DOCTYPE svg PUBLIC "-//W3C//DTD SVG 1.1//EN"
 "http://www.w3.org/Graphics/SVG/1.1/DTD/svg11.dtd">
<!-- Generated by graphviz version 8.0.5 (0)
 -->
<!-- Title: Pacserve Request Flow Chart Pages: 1 -->
<svg width="688pt" height="628pt"
 viewBox="0.00 0.00 688.15 627.77" xmlns="http://www.w3.org/2000/svg" xmlns:xlink="http://www.w3.org/1999/xlink">
<g id="graph0" class="graph" transform="scale(1 1) rotate(0) translate(14.4 613.37)">
<title>Pacserve Request Flow Chart</title>
<!-- request -->
<g id="node1" class="node">
<title>request</title>
<path fill="#aaaaff" stroke="black" d="M275.69,-596.86C275.69,-596.86 198.46,-583.07 198.46,-583.07 192.56,-582.02 192.56,-579.91 198.46,-578.86 198.46,-578.86 275.69,-565.07 275.69,-565.07 281.59,-564.02 293.41,-564.02 299.31,-565.07 299.31,-565.07 376.54,-578.86 376.54,-578.86 382.44,-579.91 382.44,-582.02 376.54,-583.07 376.54,-583.07 299.31,-596.86 299.31,-596.86 293.41,-597.91 281.59,-597.91 275.69,-596.86"/>
<text text-anchor="middle" x="287.5" y="-575.92" font-family="Times,serif" font-size="14.00">request received</text>
</g>
<!-- what_q -->
<g id="node2" class="node">
<title>what_q</title>
<ellipse fill="#cccccc" stroke="black" cx="287.5" cy="-507.97" rx="90.25" ry="18"/>
<text text-anchor="middle" x="287.5" y="-502.92" font-family="Times,serif" font-size="14.00">What was requested?</text>
</g>
<!-- request&#45;&gt;what_q -->
<g id="edge1" class="edge">
<title>request&#45;&gt;what_q</title>
<path fill="none" stroke="black" d="M287.5,-562.78C287.5,-555.02 287.5,-545.65 287.5,-536.92"/>
<polygon fill="black" stroke="black" points="291,-536.99 287.5,-526.99 284,-536.99 291,-536.99"/>
</g>
<!-- query_cache -->
<g id="node3" class="node">
<title>query_cache</title>
<ellipse fill="#cccccc" stroke="black" cx="365.5" cy="-408.47" rx="73.89" ry="28.99"/>
<text text-anchor="middle" x="365.5" y="-411.67" font-family="Times,serif" font-size="14.00">Is it in the local</text>
<text text-anchor="middle" x="365.5" y="-395.17" font-family="Times,serif" font-size="14.00">package cache?.</text>
</g>
<!-- what_q&#45;&gt;query_cache -->
<g id="edge2" class="edge">
<title>what_q:se&#45;&gt;query_cache</title>
<path fill="none" stroke="black" d="M305.5,-489.97C318.87,-476.6 331.68,-460.1 342.01,-445.53"/>
<polygon fill="black" stroke="black" points="345.28,-447.97 348.1,-437.76 339.53,-443.98 345.28,-447.97"/>
<text text-anchor="middle" x="356.62" y="-458.67" font-family="Times,serif" font-size="14.00">package</text>
</g>
<!-- query_mirror -->
<g id="node5" class="node">
<title>query_mirror</title>
<ellipse fill="#cccccc" stroke="black" cx="209.5" cy="-175.5" rx="75.48" ry="28.99"/>
<text text-anchor="middle" x="209.5" y="-178.7" font-family="Times,serif" font-size="14.00">Do any of the</text>
<text text-anchor="middle" x="209.5" y="-162.2" font-family="Times,serif" font-size="14.00">mirrors have it?.</text>
</g>
<!-- what_q&#45;&gt;query_mirror -->
<g id="edge3" class="edge">
<title>what_q:sw&#45;&gt;query_mirror</title>
<path fill="none" stroke="black" d="M269.5,-489.97C195.8,-416.26 198.01,-281.61 204.37,-215.39"/>
<polygon fill="black" stroke="black" points="207.94,-215.92 205.5,-205.6 200.98,-215.18 207.94,-215.92"/>
<text text-anchor="middle" x="249.38" y="-348.18" font-family="Times,serif" font-size="14.00">something else</text>
</g>
<!-- query_pacserve -->
<g id="node4" class="node">
<title>query_pacserve</title>
<ellipse fill="#cccccc" stroke="black" cx="338.5" cy="-297.99" rx="100.94" ry="28.99"/>
<text text-anchor="middle" x="338.5" y="-301.19" font-family="Times,serif" font-size="14.00">Do any of the Pacserve</text>
<text text-anchor="middle" x="338.5" y="-284.69" font-family="Times,serif" font-size="14.00">servers have it?.</text>
</g>
<!-- query_cache&#45;&gt;query_pacserve -->
<g id="edge5" class="edge">
<title>query_cache:sw&#45;&gt;query_pacserve</title>
<path fill="none" stroke="black" d="M338.5,-380.47C327.63,-369.61 325.99,-353.29 327.7,-338.11"/>
<polygon fill="black" stroke="black" points="331.3,-338.78 329.45,-328.34 324.39,-337.65 331.3,-338.78"/>
<text text-anchor="middle" x="335.25" y="-348.18" font-family="Times,serif" font-size="14.00">no</text>
</g>
<!-- return -->
<g id="node6" class="node">
<title>return</title>
<path fill="#88cc33" stroke="black" d="M546.69,-313.88C546.69,-313.88 469.46,-300.1 469.46,-300.1 463.56,-299.05 463.56,-296.94 469.46,-295.88 469.46,-295.88 546.69,-282.1 546.69,-282.1 552.59,-281.05 564.41,-281.05 570.31,-282.1 570.31,-282.1 647.54,-295.88 647.54,-295.88 653.44,-296.94 653.44,-299.05 647.54,-300.1 647.54,-300.1 570.31,-313.88 570.31,-313.88 564.41,-314.94 552.59,-314.94 546.69,-313.88"/>
<text text-anchor="middle" x="558.5" y="-292.94" font-family="Times,serif" font-size="14.00">Return package.</text>
</g>
<!-- query_cache&#45;&gt;return -->
<g id="edge4" class="edge">
<title>query_cache:se&#45;&gt;return</title>
<path fill="none" stroke="black" d="M392.5,-380.47C425.35,-347.62 474.11,-325.87 510.29,-313.17"/>
<polygon fill="black" stroke="black" points="511.26,-316.2 519.61,-309.68 509.01,-309.57 511.26,-316.2"/>
<text text-anchor="middle" x="445.5" y="-348.18" font-family="Times,serif" font-size="14.00">yes</text>
</g>
<!-- query_pacserve&#45;&gt;query_mirror -->
<g id="edge7" class="edge">
<title>query_pacserve:sw&#45;&gt;query_mirror</title>
<path fill="none" stroke="black" d="M310.5,-269C290.2,-248.7 266.58,-226.97 247.29,-209.68"/>
<polygon fill="black" stroke="black" points="250.1,-207.6 240.31,-203.55 245.44,-212.82 250.1,-207.6"/>
<text text-anchor="middle" x="299.25" y="-237.7" font-family="Times,serif" font-size="14.00">no</text>
</g>
<!-- redirect_pacserve -->
<g id="node7" class="node">
<title>redirect_pacserve</title>
<path fill="#88cc33" stroke="black" d="M395.34,-212.09C395.34,-212.09 313.91,-179.91 313.91,-179.91 308.33,-177.71 308.33,-173.29 313.91,-171.09 313.91,-171.09 395.34,-138.91 395.34,-138.91 400.92,-136.71 412.08,-136.71 417.66,-138.91 417.66,-138.91 499.09,-171.09 499.09,-171.09 504.67,-173.29 504.67,-177.71 499.09,-179.91 499.09,-179.91 417.66,-212.09 417.66,-212.09 412.08,-214.29 400.92,-214.29 395.34,-212.09"/>
<text text-anchor="middle" x="406.5" y="-178.7" font-family="Times,serif" font-size="14.00">Redirect to</text>
<text text-anchor="middle" x="406.5" y="-162.2" font-family="Times,serif" font-size="14.00">Pacserve server.</text>
</g>
<!-- query_pacserve&#45;&gt;redirect_pacserve -->
<g id="edge6" class="edge">
<title>query_pacserve:se&#45;&gt;redirect_pacserve</title>
<path fill="none" stroke="black" d="M366.5,-269C378.98,-256.52 387.84,-239.51 393.99,-223.47"/>
<polygon fill="black" stroke="black" points="397.61,-224.73 397.65,-214.14 391.01,-222.39 397.61,-224.73"/>
<text text-anchor="middle" x="398.5" y="-237.7" font-family="Times,serif" font-size="14.00">yes</text>
</g>
<!-- redirect_mirror -->
<g id="node8" class="node">
<title>redirect_mirror</title>
<path fill="#88cc33" stroke="black" d="M297.2,-75.84C297.2,-75.84 249.3,-47.16 249.3,-47.16 244.15,-44.08 244.15,-37.92 249.3,-34.84 249.3,-34.84 297.2,-6.16 297.2,-6.16 302.35,-3.08 312.65,-3.08 317.8,-6.16 317.8,-6.16 365.7,-34.84 365.7,-34.84 370.85,-37.92 370.85,-44.08 365.7,-47.16 365.7,-47.16 317.8,-75.84 317.8,-75.84 312.65,-78.92 302.35,-78.92 297.2,-75.84"/>
<text text-anchor="middle" x="307.5" y="-44.2" font-family="Times,serif" font-size="14.00">Redirect</text>
<text text-anchor="middle" x="307.5" y="-27.7" font-family="Times,serif" font-size="14.00">to mirror.</text>
</g>
<!-- query_mirror&#45;&gt;redirect_mirror -->
<g id="edge8" class="edge">
<title>query_mirror:se&#45;&gt;redirect_mirror</title>
<path fill="none" stroke="black" d="M236.5,-147.5C255.86,-128.14 273.12,-102.78 285.78,-81.78"/>
<polygon fill="black" stroke="black" points="289.2,-83.86 291.26,-73.47 283.17,-80.31 289.2,-83.86"/>
<text text-anchor="middle" x="282.5" y="-103.2" font-family="Times,serif" font-size="14.00">yes</text>
</g>
<!-- 404 -->
<g id="node9" class="node">
<title>404</title>
<path fill="#cc3333" stroke="black" d="M99.25,-77.83C99.25,-77.83 11.25,-45.17 11.25,-45.17 5.63,-43.09 5.63,-38.91 11.25,-36.83 11.25,-36.83 99.25,-4.17 99.25,-4.17 104.87,-2.09 116.13,-2.09 121.75,-4.17 121.75,-4.17 209.75,-36.83 209.75,-36.83 215.37,-38.91 215.37,-43.09 209.75,-45.17 209.75,-45.17 121.75,-77.83 121.75,-77.83 116.13,-79.91 104.87,-79.91 99.25,-77.83"/>
<text text-anchor="middle" x="110.5" y="-44.2" font-family="Times,serif" font-size="14.00">Return &quot;404</text>
<text text-anchor="middle" x="110.5" y="-27.7" font-family="Times,serif" font-size="14.00">Not Found&quot; error</text>
</g>
<!-- query_mirror&#45;&gt;404 -->
<g id="edge9" class="edge">
<title>query_mirror:sw&#45;&gt;404</title>
<path fill="none" stroke="black" d="M182.5,-147.5C163.96,-128.96 147.18,-105.03 134.49,-84.65"/>
<polygon fill="black" stroke="black" points="136.97,-82.99 128.78,-76.27 130.99,-86.63 136.97,-82.99"/>
<text text-anchor="middle" x="162.25" y="-103.2" font-family="Times,serif" font-size="14.00">no</text>
</g>
</g>
</svg>
